<svg xmlns="http://www.w3.org/2000/svg" viewBox="0 0 800 1000" fill="none" x="0px" y="0px"><path d="M587.408 382.424C577.188 395.304 566.928 408.155 556.628 420.975C538.398 443.655 520.038 466.235 501.568 488.715C483.028 511.275 464.358 533.724 445.568 556.074C443.318 558.744 439.048 558.204 436.728 556.074C434.098 553.654 434.628 549.734 436.728 547.234C447.308 534.644 457.848 522.025 468.358 509.375C486.948 486.985 505.408 464.495 523.748 441.895C539.078 423.005 554.308 404.035 569.458 385.005C544.648 384.745 519.838 384.914 495.038 385.574C448.738 386.804 402.478 389.654 356.378 394.104C333.328 396.334 310.318 398.954 287.358 401.984C276.898 403.364 264.838 405.065 253.578 406.755C242.008 408.495 230.458 410.335 218.928 412.275C215.468 412.855 212.368 411.404 211.238 407.904C210.268 404.924 212.368 400.764 215.608 400.214C241.768 395.814 268.008 391.944 294.318 388.574C340.488 382.654 386.868 378.345 433.348 375.665C479.028 373.035 524.788 371.995 570.538 372.505C564.968 365.715 559.338 358.975 553.628 352.305C538.628 334.805 523.138 317.725 507.168 301.105C491.198 284.485 474.748 268.325 457.858 252.635C455.298 250.255 455.638 246.215 457.858 243.795C460.198 241.245 464.298 241.565 466.698 243.795C476.248 252.665 485.658 261.685 494.928 270.865C511.308 287.085 527.218 303.775 542.648 320.895C558.078 338.025 573.008 355.594 587.428 373.574C589.758 376.474 589.708 379.535 587.428 382.415L587.408 382.424Z" fill="black"/><text x="0" y="815" fill="#000000" font-size="5px" font-weight="bold" font-family="'Helvetica Neue', Helvetica, Arial-Unicode, Arial, Sans-serif">Created by Gnu-P</text><text x="0" y="820" fill="#000000" font-size="5px" font-weight="bold" font-family="'Helvetica Neue', Helvetica, Arial-Unicode, Arial, Sans-serif">from the Noun Project</text></svg>